<svg width="130" height="31" viewBox="0 0 130 31" fill="none" xmlns="http://www.w3.org/2000/svg">
<path fill-rule="evenodd" clip-rule="evenodd" d="M73.7198 11.7726C73.4427 11.4772 73.1322 11.244 72.7926 11.0758C72.2019 10.7857 71.5132 10.6382 70.7437 10.6382C69.9297 10.6382 69.1964 10.8001 68.5649 11.1204C67.9349 11.4396 67.4007 11.8744 66.9782 12.4107C66.5568 12.9449 66.2337 13.5668 66.0177 14.2608C65.8035 14.9484 65.6946 15.6715 65.6946 16.409C65.6946 17.1848 65.7877 17.9318 65.9714 18.6282C66.1589 19.3408 66.4606 19.974 66.8673 20.5085C67.2789 21.0497 67.8123 21.4831 68.4522 21.7957C69.0896 22.1072 69.8538 22.2649 70.7227 22.2649C71.4342 22.2649 72.1208 22.1156 72.7628 21.8202C73.1262 21.6538 73.4458 21.4353 73.7201 21.166V21.6808C73.7331 22.3776 73.5663 22.9567 73.2267 23.4017C72.9008 23.8277 72.3807 24.0349 71.6354 24.0349C71.1564 24.0349 70.7311 23.9376 70.3718 23.7458C70.0456 23.5713 69.8299 23.2559 69.7112 22.7818L69.6473 22.5272H66.0321L66.0563 22.8858C66.1031 23.5674 66.2973 24.162 66.6341 24.6551C66.9638 25.138 67.3835 25.5387 67.8826 25.8456C68.3686 26.1449 68.9154 26.3693 69.5093 26.5129C70.0926 26.6523 70.6717 26.7229 71.2319 26.7229C72.5345 26.7229 73.5954 26.541 74.3856 26.1835C75.1797 25.8239 75.7992 25.3743 76.228 24.8475C76.6551 24.3204 76.9385 23.7402 77.0695 23.1239C77.1948 22.536 77.2574 22.0053 77.2574 21.547V10.9364H73.7198V11.7726ZM73.22 14.4448C73.396 14.7222 73.5238 15.0453 73.6 15.4067C73.6794 15.7839 73.7198 16.1927 73.7198 16.6219C73.7198 16.9846 73.6713 17.3351 73.5744 17.6628C73.4799 17.9845 73.3373 18.2735 73.1505 18.5218C72.9668 18.767 72.7403 18.9573 72.4569 19.1052C72.1819 19.2488 71.8556 19.3215 71.4869 19.3215C71.0862 19.3215 70.7539 19.2397 70.4997 19.0767C70.2335 18.9078 70.0157 18.6872 69.8514 18.42C69.6824 18.1446 69.5613 17.8279 69.4914 17.4788C69.4183 17.1149 69.3815 16.7409 69.3815 16.3665C69.3815 15.9827 69.4247 15.6136 69.51 15.2684C69.5918 14.9351 69.7239 14.6376 69.9037 14.3844C70.0786 14.1368 70.2984 13.9384 70.5573 13.7944C70.8098 13.6529 71.1227 13.5819 71.4869 13.5819C71.9213 13.5819 72.2802 13.6599 72.5527 13.8144C72.8326 13.9721 73.0507 14.179 73.22 14.4448Z" fill="#171717"/>
<path fill-rule="evenodd" clip-rule="evenodd" d="M100.978 12.5542C100.539 11.9786 99.9801 11.5118 99.317 11.1656C98.6476 10.8158 97.8455 10.6384 96.9324 10.6384C96.2079 10.6384 95.5311 10.7849 94.9201 11.0742C94.5632 11.2435 94.2415 11.4725 93.956 11.7584V10.9366H90.4188V26.4264H94.1046V21.7467C94.3919 22.0157 94.7171 22.238 95.0781 22.4115C95.6934 22.7086 96.3747 22.8596 97.102 22.8596C97.9579 22.8596 98.721 22.6897 99.369 22.3546C100.012 22.0224 100.557 21.5694 100.988 21.0085C101.415 20.4547 101.737 19.8106 101.947 19.0934C102.153 18.3854 102.258 17.6391 102.258 16.8767C102.258 16.0732 102.153 15.2889 101.948 14.5465C101.74 13.7946 101.413 13.1242 100.978 12.5542ZM98.5711 16.791C98.5711 17.2054 98.5303 17.6198 98.4506 18.0202C98.3737 18.4016 98.2434 18.738 98.0618 19.0193C97.8862 19.2919 97.6516 19.5173 97.3658 19.6877C97.0876 19.8534 96.7273 19.937 96.2957 19.937C95.8771 19.937 95.5195 19.8531 95.2333 19.6862C94.938 19.5135 94.7076 19.295 94.5292 19.0186C94.3469 18.737 94.2124 18.3995 94.1295 18.0163C94.0424 17.6153 93.9985 17.2033 93.9985 16.791C93.9985 16.3632 94.0393 15.9422 94.1193 15.5411C94.1959 15.1586 94.3272 14.818 94.5099 14.529C94.6862 14.249 94.9215 14.0169 95.2084 13.8399C95.4855 13.6685 95.8441 13.5821 96.2743 13.5821C96.6894 13.5821 97.0406 13.6685 97.3184 13.8392C97.6063 14.0173 97.8452 14.2536 98.0295 14.5423C98.2192 14.8384 98.3568 15.1832 98.4401 15.5671C98.5272 15.9674 98.5711 16.3797 98.5711 16.791Z" fill="#171717"/>
<path fill-rule="evenodd" clip-rule="evenodd" d="M113.531 12.3203C113.003 11.7858 112.36 11.3675 111.621 11.0767C110.883 10.7859 110.053 10.6384 109.152 10.6384C108.251 10.6384 107.424 10.7859 106.693 11.0771C105.96 11.3682 105.32 11.7861 104.794 12.3203C104.268 12.8538 103.857 13.5077 103.573 14.2638C103.291 15.0136 103.148 15.8568 103.148 16.7706C103.148 17.6851 103.291 18.5252 103.573 19.2666C103.857 20.015 104.268 20.6647 104.794 21.1988C105.321 21.7334 105.961 22.1478 106.696 22.4333C107.424 22.716 108.25 22.8596 109.152 22.8596C110.053 22.8596 110.883 22.7167 111.619 22.4336C112.36 22.1488 113.003 21.7337 113.531 21.1988C114.057 20.6647 114.468 20.015 114.753 19.2666C115.034 18.5245 115.177 17.6841 115.177 16.7706C115.177 15.8568 115.034 15.0143 114.753 14.2638C114.468 13.5077 114.057 12.8538 113.531 12.3203ZM110.271 19.6845C109.977 19.852 109.6 19.937 109.152 19.937C108.705 19.937 108.334 19.8531 108.047 19.6862C107.754 19.5149 107.524 19.2915 107.347 19.0035C107.163 18.7068 107.031 18.364 106.955 17.9879C106.874 17.5952 106.834 17.1854 106.834 16.7706C106.834 16.3559 106.875 15.9422 106.955 15.5407C107.031 15.1593 107.162 14.8187 107.345 14.5293C107.523 14.2452 107.756 14.0208 108.052 13.8413C108.338 13.6692 108.708 13.5821 109.152 13.5821C109.597 13.5821 109.972 13.6699 110.265 13.8427C110.568 14.0218 110.802 14.2462 110.98 14.5286C111.163 14.8187 111.294 15.1593 111.37 15.5411C111.451 15.9418 111.491 16.3552 111.491 16.7706C111.491 17.1857 111.451 17.5956 111.37 17.9879C111.294 18.364 111.162 18.7068 110.979 19.0028C110.802 19.2905 110.569 19.5135 110.271 19.6845Z" fill="#171717"/>
<path fill-rule="evenodd" clip-rule="evenodd" d="M130 14.0258V10.6382H127.793V7.64532H124.106V19.7636C124.106 20.3695 124.213 20.8731 124.422 21.2608C124.636 21.6555 124.932 21.9635 125.303 22.1771C125.656 22.3811 126.067 22.5202 126.525 22.5904C126.956 22.6554 127.419 22.6891 127.902 22.6891C128.205 22.6891 128.513 22.6821 128.831 22.668C129.163 22.6526 129.454 22.6231 129.719 22.5788L130 22.5328V19.5024L129.598 19.5828C129.468 19.6095 129.331 19.6284 129.188 19.6414C129.042 19.6548 128.889 19.6611 128.731 19.6611C128.15 19.6611 127.985 19.5417 127.949 19.5052C127.913 19.4686 127.793 19.3039 127.793 18.7238V14.0258H130Z" fill="#171717"/>
<path fill-rule="evenodd" clip-rule="evenodd" d="M123.221 10.6381C122.808 10.6381 121.974 10.7013 121.587 10.8238C121.206 10.9454 120.843 11.1206 120.506 11.3419C120.169 11.5642 119.866 11.8363 119.605 12.1507C119.598 12.1598 119.59 12.1675 119.583 12.1767V10.9366H116.045V22.584H119.732V17.3013C119.732 16.8321 119.779 16.3938 119.872 15.998C119.96 15.6194 120.109 15.2851 120.315 15.0052C120.517 14.7295 120.779 14.5167 121.113 14.3551C121.553 14.1433 122.153 14.0727 122.854 14.1402L123.221 14.1749V10.6381Z" fill="#171717"/>
<path fill-rule="evenodd" clip-rule="evenodd" d="M63.5461 12.7713C63.0706 12.1233 62.4571 11.6004 61.7213 11.218C60.9824 10.8338 60.1086 10.6381 59.1249 10.6381C58.2473 10.6381 57.435 10.7983 56.7091 11.1115C55.9849 11.4255 55.3517 11.8613 54.8277 12.4089C54.303 12.956 53.8932 13.6121 53.6094 14.358C53.327 15.1008 53.1841 15.9117 53.1841 16.7707C53.1841 17.6571 53.3239 18.4821 53.5975 19.2217C53.8728 19.9683 54.2721 20.6208 54.7831 21.1624C55.2951 21.7043 55.9283 22.1275 56.6652 22.4214C57.3935 22.7119 58.222 22.8597 59.1249 22.8597C60.43 22.8597 61.5622 22.5559 62.4918 21.9568C63.229 21.4806 63.8243 20.749 64.2601 19.7829L64.475 19.3088H60.9016L60.8078 19.3867C60.7457 19.438 60.6842 19.4903 60.6101 19.5406C60.2259 19.8078 59.775 19.9374 59.2306 19.9374C58.4763 19.9374 57.8975 19.7478 57.5108 19.3741C57.1775 19.0514 56.971 18.5316 56.8959 17.8271H64.7676L64.7886 17.5138C64.8473 16.6334 64.7728 15.7772 64.5667 14.967C64.3584 14.1508 64.0153 13.4112 63.5461 12.7713ZM57.9927 13.7891C58.2631 13.6517 58.6153 13.5822 59.0399 13.5822C59.6738 13.5822 60.1437 13.7452 60.4366 14.0672C60.6898 14.345 60.8858 14.7401 61.0207 15.2458H56.9219C56.9412 15.1527 56.9658 15.0555 56.996 14.9529C57.0609 14.7274 57.1761 14.509 57.3391 14.3039C57.4996 14.1023 57.7194 13.9288 57.9927 13.7891Z" fill="#171717"/>
<path fill-rule="evenodd" clip-rule="evenodd" d="M89.1237 19.8068V14.095C89.1237 13.3593 88.9523 12.7531 88.613 12.2934C88.2854 11.8484 87.858 11.4962 87.3428 11.2451C86.8462 11.0052 86.2909 10.8408 85.6918 10.7583C84.4566 10.5894 83.2654 10.5901 82.0885 10.8261C81.4522 10.9529 80.8709 11.1699 80.3599 11.4709C79.836 11.7789 79.3991 12.1922 79.0619 12.699C78.7185 13.2139 78.5211 13.8622 78.4758 14.6271L78.454 14.9828H82.1307L82.1591 14.6783C82.2062 14.1856 82.3607 13.8365 82.6209 13.642C82.8998 13.4327 83.304 13.3273 83.8203 13.3273C84.0696 13.3273 84.3063 13.3435 84.5234 13.3765C84.7158 13.4056 84.8774 13.4611 85.0171 13.5443C85.1436 13.6206 85.2426 13.7256 85.3213 13.8653C85.3989 14.0051 85.4379 14.2106 85.4386 14.4933C85.4502 14.7609 85.3564 14.8698 85.2844 14.9295C85.1264 15.059 84.8991 15.1623 84.6091 15.2343C84.2898 15.3144 83.9137 15.3762 83.4912 15.4169C83.0406 15.4608 82.5844 15.5191 82.1342 15.589C81.6731 15.6617 81.2077 15.7607 80.7505 15.8837C80.27 16.0129 79.8353 16.211 79.4574 16.4733C79.0683 16.7434 78.7483 17.1072 78.5046 17.5539C78.2594 18.0049 78.1351 18.5759 78.1351 19.2537C78.1351 19.8669 78.2419 20.4077 78.453 20.8611C78.6651 21.3177 78.9654 21.7015 79.345 22.0008C79.718 22.2968 80.1573 22.517 80.6511 22.6554C81.1322 22.7909 81.6555 22.8594 82.2076 22.8594C82.9163 22.8594 83.6208 22.7548 84.3007 22.5476C84.7966 22.3966 85.2514 22.1637 85.6581 21.8515C85.6949 22.0229 85.7399 22.1915 85.7943 22.3544L85.8713 22.5834H89.1707L89.1693 20.7783C89.1384 20.4155 89.1237 20.1068 89.1237 19.8068ZM85.4379 17.4475V18.001C85.4379 18.1573 85.4207 18.3719 85.387 18.6391C85.3567 18.8776 85.2746 19.1182 85.1418 19.3549C85.0154 19.5789 84.812 19.7763 84.5371 19.9442C84.267 20.1089 83.8621 20.1928 83.3325 20.1928C83.1151 20.1928 82.9001 20.1728 82.6929 20.1342C82.5103 20.0997 82.3502 20.0404 82.215 19.9561C82.0941 19.8813 82.0007 19.7798 81.9294 19.6478C81.8578 19.5136 81.8209 19.3387 81.8209 19.1266C81.8209 18.9008 81.8578 18.7188 81.9294 18.5857C82.0053 18.4446 82.1022 18.3322 82.2262 18.2398C82.3582 18.1422 82.5184 18.0625 82.7031 18.0031C82.9047 17.9378 83.1165 17.8841 83.3272 17.844C83.5611 17.8026 83.7953 17.7682 84.0296 17.7408C84.2782 17.7116 84.5167 17.6751 84.7446 17.6308C84.9789 17.5848 85.2008 17.5269 85.4017 17.4602C85.414 17.4563 85.4259 17.4524 85.4379 17.4475Z" fill="#171717"/>
<path fill-rule="evenodd" clip-rule="evenodd" d="M43.704 16.6516L40.3718 8.43187H35.1176V22.5836H38.9105V14.8738L42.1078 22.5836H45.1263L48.3222 14.786V22.5836H52.1158V8.43187H46.857L43.704 16.6516Z" fill="#171717"/>
<path fill-rule="evenodd" clip-rule="evenodd" d="M13.8413 12.6424V16.7299L15.9127 18.8009L17.9714 16.7426V12.6424L15.9063 10.5773L13.8413 12.6424Z" fill="#E40046"/>
<path fill-rule="evenodd" clip-rule="evenodd" d="M15.9125 0.194519C7.45537 0.194519 0.598999 7.05054 0.598999 15.508C0.598999 23.9655 7.45537 30.8212 15.9125 30.8212C24.3696 30.8212 31.226 23.9655 31.226 15.508C31.226 7.05054 24.3696 0.194519 15.9125 0.194519ZM24.8739 25.7815L23.2644 26.9693L21.6556 25.7815V21.7396L19.5909 19.6749L17.5255 21.7396V25.7815L15.9128 26.9693L14.2995 25.7815V21.7396L12.2344 19.6749L10.1698 21.7396V25.7815L8.56023 26.9693L6.95106 25.7815V20.4068L10.6231 16.7347V11.3095L14.297 7.63563V2.96545L15.9062 1.77806L17.5153 2.96545V7.63598L21.1895 11.3095V16.7224L24.8739 20.4068V25.7815Z" fill="#E40046"/>
</svg>
